<svg width="556" height="556" viewBox="0 0 556 556" fill="none" xmlns="http://www.w3.org/2000/svg">
    <path d="M120.208 91.9239L113.137 84.8528C109.232 80.9476 102.9 80.9476 98.995 84.8528L84.8528 98.9949C80.9476 102.9 80.9476 109.232 84.8528 113.137L91.9239 120.208L98.995 113.137L113.137 98.9949L120.208 91.9239Z" fill="black"/>
    <path d="M304.056 120.208L219.203 35.3553C211.393 27.5448 194.772 31.5021 182.08 44.1942L44.1942 182.08C31.5021 194.772 27.5448 211.393 35.3553 219.203L120.208 304.056C128.019 311.866 144.639 307.909 157.331 295.217L295.217 157.331C307.909 144.639 311.866 128.019 304.056 120.208Z" fill="black"/>
    <path d="M256.68 210.011L277.893 252.437L253.144 277.186L210.718 255.973L256.68 210.011Z" fill="black"/>
    <path d="M460.137 434.682L284.973 259.518C261.579 282.87 279.089 265.401 272.255 272.236L260.225 284.266L435.389 459.43C446.006 470.048 457.018 469.292 463.852 462.458C470.686 455.623 470.755 445.299 460.137 434.682Z" fill="black"/>
</svg>
